<svg width="34" height="34" viewBox="0 0 34 34" fill="none" xmlns="http://www.w3.org/2000/svg">
<g clip-path="url(#clip0_61_204)">
<path d="M27.625 13.8125C27.625 16.8605 26.6355 19.6762 24.9688 21.9605L33.3758 30.3742C34.2059 31.2043 34.2059 32.5523 33.3758 33.3824C32.5457 34.2125 31.1977 34.2125 30.3676 33.3824L21.9605 24.9688C19.6762 26.6422 16.8605 27.625 13.8125 27.625C6.18242 27.625 0 21.4426 0 13.8125C0 6.18242 6.18242 0 13.8125 0C21.4426 0 27.625 6.18242 27.625 13.8125ZM13.8125 23.375C15.0683 23.375 16.3117 23.1277 17.4719 22.6471C18.6321 22.1665 19.6862 21.4622 20.5742 20.5742C21.4622 19.6862 22.1665 18.6321 22.6471 17.4719C23.1277 16.3117 23.375 15.0683 23.375 13.8125C23.375 12.5567 23.1277 11.3133 22.6471 10.1531C22.1665 8.99291 21.4622 7.93875 20.5742 7.05079C19.6862 6.16283 18.6321 5.45846 17.4719 4.9779C16.3117 4.49734 15.0683 4.25 13.8125 4.25C12.5567 4.25 11.3133 4.49734 10.1531 4.9779C8.99291 5.45846 7.93875 6.16283 7.05079 7.05079C6.16283 7.93875 5.45846 8.99291 4.9779 10.1531C4.49734 11.3133 4.25 12.5567 4.25 13.8125C4.25 15.0683 4.49734 16.3117 4.9779 17.4719C5.45846 18.6321 6.16283 19.6862 7.05079 20.5742C7.93875 21.4622 8.99291 22.1665 10.1531 22.6471C11.3133 23.1277 12.5567 23.375 13.8125 23.375Z" fill="#111111"/>
</g>
<defs>
<clipPath id="clip0_61_204">
<rect width="34" height="34" fill="white"/>
</clipPath>
</defs>
</svg>
