<svg width="36" height="36" viewBox="0 0 36 36" fill="none" xmlns="http://www.w3.org/2000/svg">
<g clip-path="url(#clip0_61_195)">
<path d="M8.45401 9.95402L18 0.40802L27.546 9.95402C29.434 11.842 30.7197 14.2475 31.2406 16.8662C31.7615 19.485 31.4942 22.1994 30.4724 24.6662C29.4506 27.133 27.7202 29.2414 25.5002 30.7248C23.2801 32.2081 20.67 32.9999 18 32.9999C15.33 32.9999 12.7199 32.2081 10.4998 30.7248C8.27977 29.2414 6.54944 27.133 5.52765 24.6662C4.50586 22.1994 4.23851 19.485 4.75939 16.8662C5.28028 14.2475 6.56601 11.842 8.45401 9.95402ZM10.575 12.075C9.10604 13.5438 8.10577 15.4154 7.70075 17.4528C7.29573 19.4903 7.50418 21.6021 8.2997 23.5211C9.09523 25.44 10.4421 27.0799 12.1699 28.2332C13.8976 29.3865 15.9287 30.0014 18.006 30L18 4.65002L10.575 12.075Z" fill="black"/>
</g>
<defs>
<clipPath id="clip0_61_195">
<rect width="36" height="36" fill="white"/>
</clipPath>
</defs>
</svg>
